<svg xmlns="http://www.w3.org/2000/svg" viewBox="0 0 32 32">
  <style>
    .bg   { fill: #2563eb }
    .icon { stroke: #ffffff }
    @media (prefers-color-scheme: dark) {
      .bg   { fill: #0f172a }
      .icon { stroke: #93c5fd }
    }
  </style>
  <!-- Rounded square background -->
  <rect width="32" height="32" rx="7" class="bg"/>
  <!-- Lucide Scale icon scaled to fit (24x24 → 20x20, centered with 6px offset) -->
  <g class="icon" fill="none" stroke-width="2.1" stroke-linecap="round" stroke-linejoin="round"
     transform="translate(6,6) scale(0.833)">
    <path d="m16 16 3-8 3 8c-.87.65-1.92 1-3 1s-2.13-.35-3-1Z"/>
    <path d="m2 16 3-8 3 8c-.87.65-1.92 1-3 1s-2.13-.35-3-1Z"/>
    <path d="M7 21h10"/>
    <path d="M12 3v18"/>
    <path d="M3 7h2c2 0 4-1 6-2 2 1 4 2 6 2h2"/>
  </g>
</svg>
